{"title":"Grown Ups 2 2013 READNFO TS XViD AC3-FREE","uid":8734353,"size":768171977,"categoryP":"video","categoryS":"movies","magnet":"?xt=urn:btih:32084829fa856b019b470f998278dec9c4aa7741&amp;dn=Grown+Ups+2+2013+READNFO+TS+XViD+AC3-FREE&amp;tr=udp%3A%2F%2Ftracker.openbittorrent.com%3A80&amp;tr=udp%3A%2F%2Fopen.demonii.com%3A1337&amp;tr=udp%3A%2F%2Ftracker.coppersurfer.tk%3A6969&amp;tr=udp%3A%2F%2Fexodus.desync.com%3A6969","seeders":3,"leechers":0,"uploader":"ValidusVyto","files":-1,"time":1374658193,"description":"_______ Visit us at our Semi Public Bittorrent Community ________\n   &lt;a href=&quot;\nhttp://p2pdl.com&quot; rel=&quot;nofollow&quot; target=&quot;_NEW&quot;&gt;\nhttp://p2pdl.com&lt;/a&gt;  _____________________________ &lt;a href=&quot; http://p2pdl.com&quot; rel=&quot;nofollow&quot; target=&quot;_NEW&quot;&gt; http://p2pdl.com&lt;/a&gt;\n\n\nGrown Ups 2 2013 READNFO TS XViD AC3-FREE\n\niMDB:   &lt;a href=&quot; http://www.imdb.com/title/tt2191701&quot; rel=&quot;nofollow&quot; target=&quot;_NEW&quot;&gt; http://www.imdb.com/title/tt2191701&lt;/a&gt;\n\nSource:  aoe / A FRiEND\n\nNotes: Done NOTHING to vid, all I did was sync line audio to it and remux.\n\nMedia Info\nFormat                                   : AVI\nFormat/Info                              : Audio Video Interleave\nFile size                                : 733 MiB\nDuration                                 : 1h 34mn\nOverall bit rate                         : 1 086 Kbps\nWriting library                          : VirtualDub build 32661/release\n\nVideo\nDuration                                 : 1h 34mn\nBit rate                                 : 885 Kbps\nWidth                                    : 640 pixels\nHeight                                   : 352 pixels\nDisplay aspect ratio                     : 16:9\nFrame rate                               : 25.000 fps\nColor space                              : YUV\nChroma subsampling                       : 4:2:0\nBit depth                                : 8 bits\nScan type                                : Progressive\nCompression mode                         : Lossy\nBits/(Pixel*Frame)                       : 0.157\nStream size                              : 597 MiB (81%)\nWriting library                          : XviD 1.2.1 (UTC 2008-12-04)\n\nAudio\nFormat                                   : AC-3\nFormat/Info                              : Audio Coding 3\nMode extension                           : CM (complete main)\nFormat settings, Endianness              : Big\nCodec ID                                 : 2000\nDuration                                 : 1h 34mn\nBit rate mode                            : Constant\nBit rate                                 : 192 Kbps\nChannel(s)                               : 2 channels\nChannel positions                        : Front: L R\nSampling rate                            : 48.0 KHz\nBit depth                                : 16 bits\nCompression mode                         : Lossy\nDelay relative to video                  : 1s 400ms\nStream size                              : 129 MiB (18%)\nAlignment                                : Split accross interleaves\n &lt;a href=&quot;\nhttp://ultraimg.com/images/KR2TY.png&quot; rel=&quot;nofollow&quot; target=&quot;_NEW&quot;&gt;\nhttp://ultraimg.com/images/KR2TY.png&lt;/a&gt; &lt;a href=&quot;\nhttp://ultraimg.com/images/n3j1X.png&quot; rel=&quot;nofollow&quot; target=&quot;_NEW&quot;&gt;\nhttp://ultraimg.com/images/n3j1X.png&lt;/a&gt; &lt;a href=&quot;\nhttp://ultraimg.com/images/XhA3.png&quot; rel=&quot;nofollow&quot; target=&quot;_NEW&quot;&gt;\nhttp://ultraimg.com/images/XhA3.png&lt;/a&gt; &lt;a href=&quot;\nhttp://ultraimg.com/images/6WAwY.png&quot; rel=&quot;nofollow&quot; target=&quot;_NEW&quot;&gt;\nhttp://ultraimg.com/images/6WAwY.png&lt;/a&gt;\n","torrent":{"xt":"urn:btih:32084829fa856b019b470f998278dec9c4aa7741","amp;dn":"Grown+Ups+2+2013+READNFO+TS+XViD+AC3-FREE","amp;tr":["udp%3A%2F%2Ftracker.openbittorrent.com%3A80","udp%3A%2F%2Fopen.demonii.com%3A1337","udp%3A%2F%2Ftracker.coppersurfer.tk%3A6969","udp%3A%2F%2Fexodus.desync.com%3A6969"],"infoHash":"32084829fa856b019b470f998278dec9c4aa7741","infoHashBuffer":{"type":"Buffer","data":[50,8,72,41,250,133,107,1,155,71,15,153,130,120,222,201,196,170,119,65]},"announce":[],"urlList":[]}}